<svg xmlns="http://www.w3.org/2000/svg" width="10.524" height="22.652" viewBox="0 0 10.524 22.652">
  <g id="facebook" transform="translate(-796.584 -319.881)">
    <path id="Path_929" data-name="Path 929" d="M798.9,331.3v10.952a.285.285,0,0,0,.285.285h4.067a.285.285,0,0,0,.285-.285v-11.13h2.949a.285.285,0,0,0,.284-.261l.284-3.354a.286.286,0,0,0-.285-.309H803.54v-2.379a1.01,1.01,0,0,1,1.009-1.01h2.273a.285.285,0,0,0,.285-.285v-3.353a.285.285,0,0,0-.285-.285h-3.84a4.08,4.08,0,0,0-4.08,4.08v3.233h-2.033a.285.285,0,0,0-.285.285v3.354a.285.285,0,0,0,.285.285H798.9Z" fill="gray" fill-rule="evenodd"/>
  </g>
</svg>
