<svg xmlns="http://www.w3.org/2000/svg" width="23.5" height="23.501" viewBox="0 0 23.5 23.501">
  <g id="insta" transform="translate(-867 -7003)">
    <g id="Group_5406" data-name="Group 5406" transform="translate(867 7003)">
      <path id="Path_935" data-name="Path 935" d="M783.64,239.461H774.3a7.079,7.079,0,0,0-7.079,7.079v9.344a7.079,7.079,0,0,0,7.079,7.079h9.343a7.079,7.079,0,0,0,7.079-7.079V246.54A7.078,7.078,0,0,0,783.64,239.461Zm4.862,16.422a4.862,4.862,0,0,1-4.862,4.861H774.3a4.862,4.862,0,0,1-4.861-4.861V246.54a4.862,4.862,0,0,1,4.861-4.861h9.343a4.862,4.862,0,0,1,4.862,4.861Z" transform="translate(-767.218 -239.461)" fill="gray"/>
      <path id="Path_936" data-name="Path 936" d="M781.716,248.317a5.8,5.8,0,1,0,5.8,5.8A5.81,5.81,0,0,0,781.716,248.317Zm0,9.521a3.717,3.717,0,1,1,3.718-3.717A3.721,3.721,0,0,1,781.716,257.838Z" transform="translate(-769.925 -242.219)" fill="gray"/>
      <path id="Path_937" data-name="Path 937" d="M792.635,245.744a1.382,1.382,0,1,0,1.382,1.382A1.382,1.382,0,0,0,792.635,245.744Z" transform="translate(-774.703 -241.418)" fill="gray"/>
    </g>
  </g>
</svg>
