<svg xmlns="http://www.w3.org/2000/svg" width="23.313" height="19.202" viewBox="0 0 23.313 19.202">
  <g id="twitter" transform="translate(-904.462 -294.792)">
    <g id="Group_5400" data-name="Group 5400" transform="translate(904.462 294.793)">
      <path id="Path_930" data-name="Path 930" d="M927.687,297.094a9.565,9.565,0,0,1-2.355.673c.379-.064.939-.75,1.162-1.028a4.335,4.335,0,0,0,.784-1.428c.02-.04.036-.092-.005-.122a.132.132,0,0,0-.125.01,12.062,12.062,0,0,1-2.8,1.071.188.188,0,0,1-.193-.051,2.27,2.27,0,0,0-.245-.25,4.951,4.951,0,0,0-1.355-.83,4.72,4.72,0,0,0-2.078-.335,4.967,4.967,0,0,0-1.971.557,5.091,5.091,0,0,0-1.591,1.3,4.874,4.874,0,0,0-.95,1.9,5.163,5.163,0,0,0-.051,2.009c.015.112.006.128-.1.112a14.937,14.937,0,0,1-9.612-4.892c-.112-.128-.174-.128-.265.009a4.874,4.874,0,0,0,.831,5.759c.188.178.382.357.591.52a4.91,4.91,0,0,1-1.855-.52c-.112-.071-.169-.031-.179.1a2.963,2.963,0,0,0,.031.55,4.928,4.928,0,0,0,3.038,3.93,2.855,2.855,0,0,0,.616.188,5.49,5.49,0,0,1-1.819.056c-.133-.026-.183.041-.133.168a5.118,5.118,0,0,0,3.822,3.2c.174.03.347.03.52.071-.01.015-.021.015-.031.031-.429.654-1.917,1.141-2.61,1.383a9.349,9.349,0,0,1-3.964.508c-.213-.032-.258-.029-.316,0s-.007.087.061.142c.27.179.546.336.826.49a13.055,13.055,0,0,0,2.65,1.06,14.113,14.113,0,0,0,13.7-3.2c2.808-2.79,3.792-6.637,3.792-10.49,0-.151.178-.234.284-.314a9.227,9.227,0,0,0,1.856-1.939.561.561,0,0,0,.115-.372v-.021C927.775,297.032,927.783,297.051,927.687,297.094Z" transform="translate(-904.462 -294.793)" fill="gray"/>
    </g>
    <g id="Group_5401" data-name="Group 5401" transform="translate(911.385 313.912)">
      <path id="Path_931" data-name="Path 931" d="M913.909,320.882Z" transform="translate(-913.909 -320.882)" fill="gray" fill-rule="evenodd"/>
    </g>
    <g id="Group_5402" data-name="Group 5402" transform="translate(911.207 313.912)">
      <path id="Path_932" data-name="Path 932" d="M913.844,320.882c-.03,0-.385,0,0,0Z" transform="translate(-913.666 -320.882)" fill="gray" fill-rule="evenodd"/>
    </g>
    <g id="Group_5403" data-name="Group 5403" transform="translate(912.17 313.915)">
      <path id="Path_933" data-name="Path 933" d="M914.98,320.9c0-.04.413,0,0,0C914.98,320.883,915.031,320.9,914.98,320.9Z" transform="translate(-914.98 -320.886)" fill="gray" fill-rule="evenodd"/>
    </g>
    <g id="Group_5404" data-name="Group 5404" transform="translate(920.319 294.821)">
      <path id="Path_934" data-name="Path 934" d="M926.2,294.831a.083.083,0,0,1-.1,0Z" transform="translate(-926.1 -294.831)" fill="gray" fill-rule="evenodd"/>
    </g>
  </g>
</svg>
