<svg xmlns="http://www.w3.org/2000/svg" width="10.417" height="10.817" viewBox="0 0 10.417 10.817">
  <g id="user" transform="translate(-96.2 -912.349)">
    <path id="Path_910" data-name="Path 910" d="M107.049,915.185a1.775,1.775,0,0,1-1.934,1.768,1.836,1.836,0,0,1-1.616-1.859v-.526a1.836,1.836,0,0,1,1.616-1.859,1.775,1.775,0,0,1,1.934,1.768Z" transform="translate(-3.866)" fill="none" stroke="#cdcdcd" stroke-linecap="round" stroke-linejoin="round" stroke-width="0.7"/>
    <path id="Path_911" data-name="Path 911" d="M102.342,925.582l-.593.709a.444.444,0,0,1-.681,0l-.593-.709a.876.876,0,0,0-1.014-.254,4.881,4.881,0,0,0-2.908,3.981A.448.448,0,0,0,97,929.8h8.824a.448.448,0,0,0,.444-.494,4.881,4.881,0,0,0-2.908-3.981A.876.876,0,0,0,102.342,925.582Z" transform="translate(0 -6.987)" fill="none" stroke="#cdcdcd" stroke-linecap="round" stroke-linejoin="round" stroke-width="0.7"/>
  </g>
</svg>
