<svg xmlns="http://www.w3.org/2000/svg" width="25.054" height="17.539" viewBox="0 0 25.054 17.539">
  <g id="youtube" transform="translate(-768.262 -199.863)">
    <g id="Group_5408" data-name="Group 5408" transform="translate(768.262 199.863)">
      <path id="Path_938" data-name="Path 938" d="M793.316,205.317a5.454,5.454,0,0,0-5.454-5.454H773.716a5.454,5.454,0,0,0-5.454,5.454v6.63a5.454,5.454,0,0,0,5.454,5.454h14.146a5.454,5.454,0,0,0,5.454-5.454Zm-8.925,3.649-5.642,3.094c-.245.133-.466-.044-.466-.324v-6.351c0-.282.227-.459.473-.32l5.681,3.257A.37.37,0,0,1,784.392,208.966Z" transform="translate(-768.262 -199.863)" fill="gray"/>
    </g>
  </g>
</svg>
