<svg id="Group_5411" data-name="Group 5411" xmlns="http://www.w3.org/2000/svg" xmlns:xlink="http://www.w3.org/1999/xlink" width="137.84" height="45.089" viewBox="0 0 137.84 45.089">
  <defs>
    <clipPath id="clip-path">
      <path id="Path_25" data-name="Path 25" d="M154.539,340.739l-6.215-3.589-11.989-6.922c-.666-.384-1.329-.152-1.329.652v28.2c0,.6.474.862,1.052.528l12.265-7.082,6.215-3.588,5.974-3.449c.7-.405.634-.96.042-1.279S154.539,340.739,154.539,340.739Z" transform="translate(-135.006 -330.047)" fill="none"/>
    </clipPath>
    <linearGradient id="linear-gradient" x1="0.5" x2="0.5" y2="1" gradientUnits="objectBoundingBox">
      <stop offset="0" stop-color="#006aa2"/>
      <stop offset="0.345" stop-color="#2f8da6"/>
      <stop offset="0.786" stop-color="#66b6ac"/>
      <stop offset="1" stop-color="#7cc6af"/>
    </linearGradient>
    <linearGradient id="linear-gradient-2" y1="0.5" x2="1" y2="0.5" gradientUnits="objectBoundingBox">
      <stop offset="0" stop-color="#4ab59d"/>
      <stop offset="1" stop-color="#dfe385"/>
    </linearGradient>
    <linearGradient id="linear-gradient-3" x1="0.5" x2="0.5" y2="1" gradientUnits="objectBoundingBox">
      <stop offset="0" stop-color="#e4282d"/>
      <stop offset="0.316" stop-color="#ba2d4e"/>
      <stop offset="0.777" stop-color="#83357b"/>
      <stop offset="1" stop-color="#6e388d"/>
    </linearGradient>
    <linearGradient id="linear-gradient-4" x1="0.5" x2="0.5" y2="1" gradientUnits="objectBoundingBox">
      <stop offset="0" stop-color="#f07165"/>
      <stop offset="0.659" stop-color="#faa460"/>
      <stop offset="1" stop-color="#ffba5e"/>
    </linearGradient>
  </defs>
  <path id="Path_20" data-name="Path 20" d="M234.481,335.069a6.093,6.093,0,0,1-6.092,6.094H102.734a6.094,6.094,0,0,1-6.093-6.094v-32.9a6.094,6.094,0,0,1,6.093-6.093H228.389a6.093,6.093,0,0,1,6.092,6.093Z" transform="translate(-96.641 -296.074)"/>
  <g id="PLAY" transform="translate(10.339 9.156)">
    <g id="Group_5" data-name="Group 5" transform="translate(0)" clip-path="url(#clip-path)">
      <path id="Path_21" data-name="Path 21" d="M135.006,328.285v30.534l15.4-15.267Z" transform="translate(-135.006 -328.76)" fill="url(#linear-gradient)"/>
      <path id="Path_22" data-name="Path 22" d="M154.539,339.151l-6.215-3.588-13.317-7.689v.111l15.4,15.267Z" transform="translate(-135.006 -328.459)" fill="url(#linear-gradient-2)"/>
      <path id="Path_23" data-name="Path 23" d="M135.006,400.2v.111l13.317-7.689,6.215-3.588-4.135-4.1Z" transform="translate(-135.006 -370.145)" fill="url(#linear-gradient-3)"/>
      <path id="Path_24" data-name="Path 24" d="M196.275,369.721l-4.136,4.1,4.135,4.1,7.1-4.1Z" transform="translate(-176.743 -359.029)" fill="url(#linear-gradient-4)"/>
    </g>
  </g>
  <g id="Group_6" data-name="Group 6" transform="translate(103.142 17.147)">
    <path id="Path_26" data-name="Path 26" d="M483.5,382.136a3.84,3.84,0,0,1-1.584-.32,2.986,2.986,0,0,1-1.2-.984h-.1a11.924,11.924,0,0,1,.1,1.474v3.654h-1.344V373.094h1.094l.186,1.215h.065a3.127,3.127,0,0,1,1.208-1.053,3.669,3.669,0,0,1,1.58-.324,3.282,3.282,0,0,1,2.726,1.207,6.43,6.43,0,0,1-.015,6.786A3.29,3.29,0,0,1,483.5,382.136Zm-.195-8.062a2.383,2.383,0,0,0-1.968.754,3.88,3.88,0,0,0-.624,2.4v.3a4.443,4.443,0,0,0,.624,2.678,2.373,2.373,0,0,0,2,.806,2.081,2.081,0,0,0,1.8-.931,4.421,4.421,0,0,0,.652-2.569,4.255,4.255,0,0,0-.652-2.548A2.147,2.147,0,0,0,483.3,374.074Z" transform="translate(-479.368 -369.367)" fill="#f9f9f9"/>
    <path id="Path_27" data-name="Path 27" d="M516.289,372.31h-1.345V359.7h1.345Z" transform="translate(-505.356 -359.703)" fill="#f9f9f9"/>
    <path id="Path_28" data-name="Path 28" d="M532.022,382.018l-.268-1.264h-.065a3.725,3.725,0,0,1-1.325,1.13,4.024,4.024,0,0,1-1.648.3,2.967,2.967,0,0,1-2.07-.68,2.481,2.481,0,0,1-.75-1.936q0-2.689,4.3-2.82l1.508-.049v-.551a2.249,2.249,0,0,0-.45-1.543,1.848,1.848,0,0,0-1.438-.5,5.856,5.856,0,0,0-2.512.681l-.413-1.029a6.324,6.324,0,0,1,1.439-.559,6.226,6.226,0,0,1,1.568-.2,3.383,3.383,0,0,1,2.354.7,2.945,2.945,0,0,1,.765,2.261v6.06Zm-3.038-.948a2.732,2.732,0,0,0,1.973-.689,2.55,2.55,0,0,0,.717-1.929v-.8l-1.346.056a4.893,4.893,0,0,0-2.313.5,1.5,1.5,0,0,0-.709,1.373,1.384,1.384,0,0,0,.442,1.11A1.831,1.831,0,0,0,528.984,381.07Z" transform="translate(-513.358 -369.411)" fill="#f9f9f9"/>
    <path id="Path_29" data-name="Path 29" d="M555.222,373.533h1.442l1.945,5.064a19.341,19.341,0,0,1,.794,2.5h.065q.105-.414.441-1.415t2.2-6.153h1.443l-3.817,10.112a5.044,5.044,0,0,1-1.325,2.127,2.818,2.818,0,0,1-1.859.627,5.439,5.439,0,0,1-1.216-.137v-1.077a4.7,4.7,0,0,0,1,.1,2.054,2.054,0,0,0,1.977-1.556l.494-1.264Z" transform="translate(-534.78 -369.806)" fill="#f9f9f9"/>
  </g>
  <g id="Group_8" data-name="Group 8" transform="translate(41.829 16.155)">
    <path id="Path_30" data-name="Path 30" d="M383.471,374.782a3.025,3.025,0,0,1-.242,5.145,1.307,1.307,0,0,0-.52.911,1.019,1.019,0,0,0,.483.8l.669.519a3.234,3.234,0,0,1,1.559,2.6c0,1.746-1.69,3.51-4.884,3.51-2.694,0-3.993-1.281-3.993-2.657a2.672,2.672,0,0,1,1.43-2.266,8.005,8.005,0,0,1,3.547-.855,1.943,1.943,0,0,1-.558-1.262,1.677,1.677,0,0,1,.186-.725c-.205.019-.409.037-.6.037a2.936,2.936,0,0,1-3.083-2.915,3.341,3.341,0,0,1,1.188-2.489,5.065,5.065,0,0,1,3.326-1.022h3.825l-1.189.669Zm-1.319,8.247a2.877,2.877,0,0,0-.427-.019,7.43,7.43,0,0,0-1.951.3,2.086,2.086,0,0,0-1.6,1.913c0,1.318,1.282,2.267,3.27,2.267,1.782,0,2.73-.856,2.73-2.007C384.177,384.532,383.564,384.032,382.152,383.029Zm.539-3.529a1.879,1.879,0,0,0,.463-1.356c0-1.337-.8-3.417-2.339-3.417a1.735,1.735,0,0,0-1.3.613,2.146,2.146,0,0,0-.409,1.374c0,1.244.724,3.306,2.322,3.306A1.9,1.9,0,0,0,382.691,379.5Z" transform="translate(-342.941 -369.237)" fill="#f9f9f9"/>
    <path id="Path_31" data-name="Path 31" d="M346.6,382.017a4.376,4.376,0,0,1-4.524-4.377,4.6,4.6,0,0,1,4.8-4.505,4.335,4.335,0,0,1,4.431,4.376A4.531,4.531,0,0,1,346.6,382.017Zm2.318-1.5a3.355,3.355,0,0,0,.557-2.059c0-1.632-.779-4.747-3.078-4.747a2.583,2.583,0,0,0-1.668.631,2.806,2.806,0,0,0-.854,2.263c0,1.834.909,4.856,3.153,4.856A2.368,2.368,0,0,0,348.915,380.515Z" transform="translate(-317.76 -368.522)" fill="#f9f9f9"/>
    <path id="Path_32" data-name="Path 32" d="M309.3,382.017a4.376,4.376,0,0,1-4.525-4.377,4.6,4.6,0,0,1,4.8-4.505,4.335,4.335,0,0,1,4.431,4.376A4.531,4.531,0,0,1,309.3,382.017Zm2.318-1.5a3.359,3.359,0,0,0,.556-2.059c0-1.632-.779-4.747-3.079-4.747a2.584,2.584,0,0,0-1.669.631,2.806,2.806,0,0,0-.853,2.263c0,1.834.908,4.856,3.153,4.856A2.37,2.37,0,0,0,311.619,380.515Z" transform="translate(-290.514 -368.522)" fill="#f9f9f9"/>
    <path id="Path_33" data-name="Path 33" d="M264.7,370.349l-2.666.615a19.757,19.757,0,0,1-3.076.316c-5.146,0-7.1-3.785-7.1-6.749,0-3.616,2.777-6.971,7.532-6.971a10.734,10.734,0,0,1,2.852.391,7.27,7.27,0,0,1,2.461,1.156l-1.548,1.473-.652.148.466-.746a5.328,5.328,0,0,0-3.989-1.752,5.15,5.15,0,0,0-5.165,5.5,6.593,6.593,0,0,0,6.6,6.8,5.552,5.552,0,0,0,2.368-.466v-3l-2.815.149,1.491-.8h3.953l-.484.466a.436.436,0,0,0-.187.3c-.019.168-.037.709-.037.9Z" transform="translate(-251.856 -357.145)" fill="#f9f9f9"/>
    <path id="Path_34" data-name="Path 34" d="M413.381,368.686c-.616-.056-.744-.167-.744-.9V357.239c0-.04.006-.081.01-.12.075-.652.261-.764.84-1.1H410.82l-1.4.671h1.425V368.2c0,.372-.074.428-.5.987h3.3l.69-.409C414.016,368.742,413.7,368.723,413.381,368.686Z" transform="translate(-366.958 -356.019)" fill="#f9f9f9"/>
    <path id="Path_35" data-name="Path 35" d="M433.948,381.376c-.2.111-.407.242-.61.333a4.313,4.313,0,0,1-1.8.352,3.957,3.957,0,0,1-2.463-.723,4.791,4.791,0,0,1-1.887-3.907,4.2,4.2,0,0,1,4.24-4.276,3.6,3.6,0,0,1,1.908.519,3.065,3.065,0,0,1,1.294,1.832l-4.35,1.76-1.426.111c.462,2.351,2.054,3.72,3.814,3.72a4.784,4.784,0,0,0,2.259-.647Zm-1.74-5.518c.351-.129.536-.241.536-.5a1.837,1.837,0,0,0-1.833-1.592,2.28,2.28,0,0,0-2.129,2.573c0,.315.037.648.056.982Z" transform="translate(-379.939 -368.538)" fill="#f9f9f9"/>
    <g id="Group_7" data-name="Group 7" transform="translate(55.243 4.618)">
      <path id="Path_36" data-name="Path 36" d="M457.4,373.283V374.5h-.148v-1.222h-.4v-.127h.956v.127Z" transform="translate(-456.846 -373.156)" fill="#f9f9f9"/>
      <path id="Path_37" data-name="Path 37" d="M462.316,374.5v-1.233h-.007l-.376,1.233h-.116l-.38-1.233h0V374.5H461.3v-1.348h.231l.344,1.09h0l.338-1.09h.234V374.5Z" transform="translate(-460.098 -373.156)" fill="#f9f9f9"/>
    </g>
  </g>
  <g id="Group_9" data-name="Group 9" transform="translate(41.861 9.084)">
    <path id="Path_38" data-name="Path 38" d="M255.645,333.872h-.926a6.151,6.151,0,0,0-.264-1.083h-1.337a5.594,5.594,0,0,0-.272,1.083h-.871q0-.113.676-1.853a14.574,14.574,0,0,0,.676-1.916h1.094a15.993,15.993,0,0,0,.612,1.889A16.539,16.539,0,0,1,255.645,333.872Zm-1.337-1.636a16.389,16.389,0,0,1-.5-1.616h-.046q0,.113-.512,1.616Z" transform="translate(-251.974 -330.016)" fill="#f7f8f8"/>
    <path id="Path_39" data-name="Path 39" d="M271.026,333.872h-.715a7.052,7.052,0,0,0-.8-1.253,6.9,6.9,0,0,1-.949-1.636h-.046a10.2,10.2,0,0,1,.073,1.146q0,.715.04,1.743h-.712q.044-.9.043-1.972,0-1.057-.043-1.8h.86a5.447,5.447,0,0,0,.715,1.224,7.207,7.207,0,0,1,.874,1.543h.043a11,11,0,0,1-.069-1.158q0-.784-.041-1.609h.724q-.041.718-.041,1.8T271.026,333.872Z" transform="translate(-263.623 -330.016)" fill="#f7f8f8"/>
    <path id="Path_40" data-name="Path 40" d="M286.385,331.81a2.135,2.135,0,0,1-.527,1.436,1.84,1.84,0,0,1-1.476.614q-.429,0-1.181-.035.038-.874.038-1.972,0-1.053-.038-1.8h.507q.124,0,.371-.009t.321-.009a1.952,1.952,0,0,1,1.516.521A1.8,1.8,0,0,1,286.385,331.81Zm-.79.125a1.4,1.4,0,0,0-.324-.936,1.229,1.229,0,0,0-.99-.38,3.069,3.069,0,0,0-.342.026q.029.579.029,1.21,0,.692.029,1.372a1.919,1.919,0,0,0,.376.038,1.094,1.094,0,0,0,.922-.387A1.491,1.491,0,0,0,285.594,331.934Z" transform="translate(-274.785 -329.968)" fill="#f7f8f8"/>
    <path id="Path_41" data-name="Path 41" d="M301.1,333.825h-.857a5.684,5.684,0,0,0-.515-1.265.675.675,0,0,0-.579-.24q-.168,0-.322,0,0,.744.026,1.5h-.8q.038-.874.037-1.972,0-1.053-.037-1.8h.5q.087,0,.363-.009t.511-.009q1.329,0,1.329.909a1.02,1.02,0,0,1-.759,1V332a.9.9,0,0,1,.513.456A10.086,10.086,0,0,1,301.1,333.825Zm-1.086-2.663q0-.576-.741-.576a2.523,2.523,0,0,0-.481.041q.032.449.032,1.17.159.006.269.006Q300.016,331.8,300.017,331.161Z" transform="translate(-285.634 -329.968)" fill="#f7f8f8"/>
    <path id="Path_42" data-name="Path 42" d="M314.782,331.682a2.08,2.08,0,0,1-.544,1.474,1.766,1.766,0,0,1-1.346.585,1.7,1.7,0,0,1-1.28-.537,1.89,1.89,0,0,1-.515-1.365,2.078,2.078,0,0,1,.544-1.474,1.765,1.765,0,0,1,1.346-.585,1.7,1.7,0,0,1,1.28.536A1.889,1.889,0,0,1,314.782,331.682Zm-.8.084a1.494,1.494,0,0,0-.31-.981.954.954,0,0,0-.764-.376.883.883,0,0,0-.718.379,1.514,1.514,0,0,0-.3.958,1.491,1.491,0,0,0,.311.98.954.954,0,0,0,.763.378.882.882,0,0,0,.718-.381A1.515,1.515,0,0,0,313.983,331.766Z" transform="translate(-295.164 -329.78)" fill="#f7f8f8"/>
    <path id="Path_43" data-name="Path 43" d="M328.624,333.872H327.8q.038-.9.038-1.972,0-1.057-.038-1.8h.819q-.038.729-.037,1.8Q328.587,332.992,328.624,333.872Z" transform="translate(-307.369 -330.016)" fill="#f7f8f8"/>
    <path id="Path_44" data-name="Path 44" d="M337.783,331.81a2.135,2.135,0,0,1-.527,1.436,1.84,1.84,0,0,1-1.476.614q-.429,0-1.181-.035.037-.874.038-1.972,0-1.053-.038-1.8h.507q.124,0,.371-.009c.164-.006.271-.009.321-.009a1.952,1.952,0,0,1,1.516.521A1.8,1.8,0,0,1,337.783,331.81Zm-.79.125a1.4,1.4,0,0,0-.324-.936,1.229,1.229,0,0,0-.99-.38,3.064,3.064,0,0,0-.342.026q.029.579.029,1.21,0,.692.029,1.372a1.919,1.919,0,0,0,.376.038,1.094,1.094,0,0,0,.922-.387A1.492,1.492,0,0,0,336.993,331.934Z" transform="translate(-312.332 -329.968)" fill="#f7f8f8"/>
    <path id="Path_45" data-name="Path 45" d="M357.121,333.872h-.926a6.1,6.1,0,0,0-.264-1.083h-1.337a5.587,5.587,0,0,0-.272,1.083h-.871q0-.113.676-1.853a14.545,14.545,0,0,0,.676-1.916H355.9a15.971,15.971,0,0,0,.613,1.889A16.617,16.617,0,0,1,357.121,333.872Zm-1.337-1.636a16.421,16.421,0,0,1-.5-1.616h-.046q0,.113-.512,1.616Z" transform="translate(-326.103 -330.016)" fill="#f7f8f8"/>
    <path id="Path_46" data-name="Path 46" d="M372.146,331.043a1.129,1.129,0,0,1-.514,1.022,2.285,2.285,0,0,1-1.26.33q-.136,0-.194-.006,0,.544.032,1.436H369.4q.038-.836.038-1.972,0-1.042-.038-1.8h.5q.107,0,.411-.009t.527-.009a1.657,1.657,0,0,1,.929.249A.842.842,0,0,1,372.146,331.043Zm-.747.159q0-.619-.822-.619a2.313,2.313,0,0,0-.434.043q.032.547.032,1.239c.048,0,.1.006.168.006Q371.4,331.871,371.4,331.2Z" transform="translate(-337.752 -329.968)" fill="#f7f8f8"/>
    <path id="Path_47" data-name="Path 47" d="M385.03,331.043a1.129,1.129,0,0,1-.514,1.022,2.287,2.287,0,0,1-1.261.33c-.091,0-.155,0-.194-.006q0,.544.032,1.436h-.814q.038-.836.038-1.972,0-1.042-.038-1.8h.5q.107,0,.411-.009t.527-.009a1.657,1.657,0,0,1,.929.249A.842.842,0,0,1,385.03,331.043Zm-.747.159q0-.619-.822-.619a2.313,2.313,0,0,0-.434.043q.032.547.032,1.239c.048,0,.1.006.168.006Q384.283,331.871,384.283,331.2Z" transform="translate(-347.164 -329.968)" fill="#f7f8f8"/>
    <path id="Path_48" data-name="Path 48" d="M403.56,331.682a2.078,2.078,0,0,1-.544,1.474,1.766,1.766,0,0,1-1.346.585,1.7,1.7,0,0,1-1.28-.537,1.892,1.892,0,0,1-.515-1.365,2.079,2.079,0,0,1,.544-1.474,1.766,1.766,0,0,1,1.346-.585,1.7,1.7,0,0,1,1.28.536A1.891,1.891,0,0,1,403.56,331.682Zm-.8.084a1.493,1.493,0,0,0-.31-.981.953.953,0,0,0-.764-.376.883.883,0,0,0-.718.379,1.513,1.513,0,0,0-.3.958,1.491,1.491,0,0,0,.311.98.953.953,0,0,0,.763.378.881.881,0,0,0,.718-.381A1.513,1.513,0,0,0,402.761,331.766Z" transform="translate(-360.017 -329.78)" fill="#f7f8f8"/>
    <path id="Path_49" data-name="Path 49" d="M419.69,333.872h-.715a7.05,7.05,0,0,0-.8-1.253,6.91,6.91,0,0,1-.95-1.636h-.046a10.252,10.252,0,0,1,.072,1.146q0,.715.041,1.743h-.712q.043-.9.043-1.972,0-1.057-.043-1.8h.86a5.453,5.453,0,0,0,.715,1.224,7.21,7.21,0,0,1,.874,1.543h.043a10.914,10.914,0,0,1-.069-1.158q0-.784-.04-1.609h.724q-.04.718-.04,1.8T419.69,333.872Z" transform="translate(-372.223 -330.016)" fill="#f7f8f8"/>
  </g>
</svg>
