<svg id="Group_5412" data-name="Group 5412" xmlns="http://www.w3.org/2000/svg" width="138.4" height="45.272" viewBox="0 0 138.4 45.272">
  <path id="Path_50" data-name="Path 50" d="M235.041,974.979a6.118,6.118,0,0,1-6.117,6.119H102.759a6.119,6.119,0,0,1-6.118-6.119V941.943a6.119,6.119,0,0,1,6.118-6.118H228.924a6.118,6.118,0,0,1,6.117,6.118Z" transform="translate(-96.641 -935.825)"/>
  <g id="Group_12" data-name="Group 12" transform="translate(9.284 7.038)">
    <path id="Path_51" data-name="Path 51" d="M158.444,1005.469a22.419,22.419,0,0,1-2.026,3.784c-1.317,2-3.171,4.5-5.47,4.521-2.043.019-2.567-1.33-5.339-1.314s-3.351,1.338-5.394,1.319c-2.3-.021-4.056-2.275-5.373-4.278-3.681-5.6-4.065-12.179-1.8-15.674a8.145,8.145,0,0,1,6.551-3.938c2.436,0,3.968,1.336,5.982,1.336,1.954,0,3.145-1.338,5.961-1.338a7.949,7.949,0,0,1,5.993,3.164A6.857,6.857,0,0,0,158.444,1005.469Z" transform="translate(-131.637 -982.582)" fill="#fff"/>
    <g id="Group_11" data-name="Group 11" transform="translate(12.885)">
      <path id="Path_52" data-name="Path 52" d="M185.09,967.42a6.838,6.838,0,0,0,1.518-5.065,7.388,7.388,0,0,0-4.769,2.565,6.348,6.348,0,0,0-1.559,4.94A6.236,6.236,0,0,0,185.09,967.42Z" transform="translate(-180.207 -962.355)" fill="#fff"/>
    </g>
  </g>
  <g id="Group_15" data-name="Group 15" transform="translate(42.032 7.105)">
    <g id="Group_13" data-name="Group 13" transform="translate(0 10.845)">
      <path id="Path_53" data-name="Path 53" d="M260.354,1004.42l-5.272,15.52H257.5l1.574-4.766h5.105l1.619,4.766h2.481l-5.3-15.52Zm1.251,2.552c.178.693.37,1.412.617,2.19l1.421,4.115H259.6l1.4-4.142C261.214,1008.463,261.417,1007.738,261.606,1006.972Z" transform="translate(-255.082 -1004.173)" fill="#fff"/>
      <path id="Path_54" data-name="Path 54" d="M313.988,1019.586a4.394,4.394,0,0,0-3.733,1.791l-.094-1.544h-2.148l.013.2c.063.962.09,2.02.09,3.54v11.963h2.348v-5.583a4.123,4.123,0,0,0,3.21,1.379,4.841,4.841,0,0,0,3.558-1.513,6.415,6.415,0,0,0,1.571-4.516,6.246,6.246,0,0,0-1.364-4.124A4.467,4.467,0,0,0,313.988,1019.586Zm-.585,1.944c2.093,0,3.03,1.939,3.03,3.861,0,2.478-1.2,4.018-3.119,4.018a2.847,2.847,0,0,1-2.766-2.179,2.992,2.992,0,0,1-.083-.76v-1.888a3.531,3.531,0,0,1,.075-.579c.012-.064.024-.129.034-.191A2.973,2.973,0,0,1,313.4,1021.53Z" transform="translate(-293.972 -1015.315)" fill="#fff"/>
      <path id="Path_55" data-name="Path 55" d="M359.57,1019.586a4.4,4.4,0,0,0-3.733,1.791l-.094-1.544H353.6l.012.2c.064.963.09,2.02.09,3.54v11.963h2.348v-5.583a4.121,4.121,0,0,0,3.209,1.379,4.847,4.847,0,0,0,3.56-1.513,6.423,6.423,0,0,0,1.57-4.516,6.247,6.247,0,0,0-1.365-4.124A4.466,4.466,0,0,0,359.57,1019.586Zm-.584,1.944c2.092,0,3.029,1.939,3.029,3.861,0,2.478-1.2,4.018-3.119,4.018a2.847,2.847,0,0,1-2.766-2.179,3,3,0,0,1-.083-.76v-1.888a3.488,3.488,0,0,1,.075-.581c.012-.063.023-.127.034-.189A2.972,2.972,0,0,1,358.986,1021.53Z" transform="translate(-327.462 -1015.315)" fill="#fff"/>
      <path id="Path_56" data-name="Path 56" d="M417.735,1010.311c-2.191-.849-2.894-1.516-2.894-2.749,0-1.038.825-2.086,2.669-2.086a5.335,5.335,0,0,1,2.757.692l.2.123.663-1.96-.131-.077a6.8,6.8,0,0,0-3.419-.767c-2.995,0-5.086,1.768-5.086,4.3,0,2.041,1.31,3.467,4.121,4.489,1.993.745,2.735,1.508,2.735,2.816,0,1.48-1.144,2.4-2.985,2.4a6.427,6.427,0,0,1-3.385-.96l-.2-.13-.63,2.005.116.077a8.044,8.044,0,0,0,3.968,1.02c4.036,0,5.467-2.461,5.467-4.568C421.7,1012.761,420.549,1011.422,417.735,1010.311Z" transform="translate(-370.479 -1003.488)" fill="#fff"/>
      <path id="Path_57" data-name="Path 57" d="M453.034,1010.439l-2.3.723v1.951h-1.686v1.876h1.686v5.749a4.393,4.393,0,0,0,.813,2.979,3.01,3.01,0,0,0,2.272.892,5.529,5.529,0,0,0,1.815-.28l.132-.047-.113-1.88-.225.069a3.538,3.538,0,0,1-1.092.126c-.91,0-1.3-.576-1.3-1.927v-5.681h2.833v-1.876h-2.833Z" transform="translate(-397.59 -1008.595)" fill="#fff"/>
      <path id="Path_58" data-name="Path 58" d="M481.242,1019.586c-3.286,0-5.58,2.452-5.58,5.962,0,3.4,2.22,5.782,5.4,5.782h.022c2.688,0,5.58-1.872,5.58-5.984a5.932,5.932,0,0,0-1.5-4.153A5.225,5.225,0,0,0,481.242,1019.586Zm-.068,1.854c2.112,0,3.074,2.059,3.074,3.974,0,2.354-1.312,4.062-3.119,4.062h-.023c-1.781,0-3.073-1.68-3.073-3.994C478.033,1023.47,479,1021.44,481.174,1021.44Z" transform="translate(-417.146 -1015.315)" fill="#fff"/>
      <path id="Path_59" data-name="Path 59" d="M528.056,1019.7l-.141-.036a2.26,2.26,0,0,0-.584-.073,3.35,3.35,0,0,0-2.944,1.891l-.069-1.643h-2.107l.014.2c.063.93.089,1.973.089,3.381l-.022,7.671h2.348V1025.1a6.067,6.067,0,0,1,.065-.91,2.6,2.6,0,0,1,2.471-2.366,6.037,6.037,0,0,1,.63.039l.251.026Z" transform="translate(-451.346 -1015.315)" fill="#fff"/>
      <path id="Path_60" data-name="Path 60" d="M549.44,1019.5c-3.126,0-5.309,2.5-5.309,6.074,0,3.444,2.172,5.67,5.534,5.67a9.007,9.007,0,0,0,3.718-.713l.141-.064-.451-1.75-.2.079a7.277,7.277,0,0,1-2.942.526,3.264,3.264,0,0,1-3.517-3.4l7.579.023.031-.15a5.227,5.227,0,0,0,.07-.98C554.1,1022.363,552.878,1019.5,549.44,1019.5Zm-.156,1.786a2.317,2.317,0,0,1,1.724.658,3.342,3.342,0,0,1,.809,2.186h-5.355A3,3,0,0,1,549.284,1021.288Z" transform="translate(-467.451 -1015.254)" fill="#fff"/>
    </g>
    <g id="Group_14" data-name="Group 14">
      <path id="Path_61" data-name="Path 61" d="M255.082,964.033a17.123,17.123,0,0,1,2.252-.152,5.026,5.026,0,0,1,3.306.9,3.214,3.214,0,0,1,1.163,2.648,3.718,3.718,0,0,1-1.175,2.855,5.449,5.449,0,0,1-3.621,1.057,16.294,16.294,0,0,1-1.926-.088Zm1.066,6.506a7.558,7.558,0,0,0,1.066.044c2.252.01,3.475-1.133,3.475-3.117.012-1.755-1.078-2.834-3.306-2.834a6.682,6.682,0,0,0-1.235.1Z" transform="translate(-255.082 -963.543)" fill="#fff"/>
      <path id="Path_62" data-name="Path 62" d="M286.873,976.954a2.648,2.648,0,0,1-2.809-2.714,2.721,2.721,0,0,1,2.906-2.8,2.626,2.626,0,0,1,2.821,2.7,2.731,2.731,0,0,1-2.906,2.812Zm.036-.72a1.877,1.877,0,0,0,1.78-2.06,1.792,1.792,0,1,0-1.793,2.06Z" transform="translate(-276.376 -969.097)" fill="#fff"/>
      <path id="Path_63" data-name="Path 63" d="M308.99,971.891l.787,2.67c.157.588.315,1.144.424,1.689h.036c.133-.534.327-1.1.521-1.678l.957-2.681h.9l.908,2.637c.218.622.387,1.188.52,1.722h.036a14.6,14.6,0,0,1,.448-1.711l.835-2.648h1.054l-1.889,5.275h-.969l-.9-2.517a17.28,17.28,0,0,1-.521-1.744h-.024a14.478,14.478,0,0,1-.533,1.755l-.944,2.506h-.969l-1.768-5.275Z" transform="translate(-293.888 -969.428)" fill="#fff"/>
      <path id="Path_64" data-name="Path 64" d="M343.877,972.987c0-.556-.012-.992-.049-1.428h.945l.06.861h.024a2.22,2.22,0,0,1,1.937-.981,2.006,2.006,0,0,1,2.071,2.245v3.149H347.8v-3.04c0-.85-.352-1.569-1.357-1.569a1.52,1.52,0,0,0-1.429.981,1.292,1.292,0,0,0-.073.447v3.182h-1.065Z" transform="translate(-320.285 -969.097)" fill="#fff"/>
      <path id="Path_65" data-name="Path 65" d="M369.346,962.607h1.066v7.737h-1.066Z" transform="translate(-339.034 -962.607)" fill="#fff"/>
      <path id="Path_66" data-name="Path 66" d="M381.241,976.954a2.648,2.648,0,0,1-2.809-2.714,2.72,2.72,0,0,1,2.906-2.8,2.626,2.626,0,0,1,2.821,2.7,2.731,2.731,0,0,1-2.906,2.812Zm.036-.72a1.877,1.877,0,0,0,1.781-2.06,1.792,1.792,0,1,0-1.792,2.06Z" transform="translate(-345.71 -969.097)" fill="#fff"/>
      <path id="Path_67" data-name="Path 67" d="M407.946,975.57a7.949,7.949,0,0,0,.085,1.264h-.957l-.1-.664h-.036a2.253,2.253,0,0,1-1.792.784,1.6,1.6,0,0,1-1.792-1.515c0-1.275,1.259-1.973,3.523-1.962v-.109c0-.436-.133-1.231-1.332-1.221a3.059,3.059,0,0,0-1.538.392l-.243-.643a4.128,4.128,0,0,1,1.938-.458,1.961,1.961,0,0,1,2.24,2.158Zm-1.041-1.428c-1.162-.022-2.482.163-2.482,1.188a.891.891,0,0,0,.993.916,1.478,1.478,0,0,0,1.441-.883.88.88,0,0,0,.049-.305Z" transform="translate(-364.022 -969.097)" fill="#fff"/>
      <path id="Path_68" data-name="Path 68" d="M430.981,962.607v6.375c0,.469.013,1,.049,1.362h-.956l-.048-.915H430a2.193,2.193,0,0,1-1.986,1.035,2.515,2.515,0,0,1-2.519-2.681,2.63,2.63,0,0,1,2.628-2.833,2.016,2.016,0,0,1,1.769.8h.024v-3.139Zm-1.065,4.61a1.6,1.6,0,0,0-.049-.414,1.541,1.541,0,0,0-1.538-1.1,1.8,1.8,0,0,0-1.756,2.027,1.75,1.75,0,0,0,1.732,1.961,1.586,1.586,0,0,0,1.562-1.144,1.494,1.494,0,0,0,.049-.414Z" transform="translate(-380.288 -962.607)" fill="#fff"/>
      <path id="Path_69" data-name="Path 69" d="M463.729,976.954a2.648,2.648,0,0,1-2.809-2.714,2.721,2.721,0,0,1,2.906-2.8,2.626,2.626,0,0,1,2.822,2.7,2.731,2.731,0,0,1-2.906,2.812Zm.037-.72a1.876,1.876,0,0,0,1.78-2.06,1.792,1.792,0,1,0-1.792,2.06Z" transform="translate(-406.315 -969.097)" fill="#fff"/>
      <path id="Path_70" data-name="Path 70" d="M487.447,972.987c0-.556-.012-.992-.049-1.428h.945l.061.861h.024a2.22,2.22,0,0,1,1.937-.981,2.006,2.006,0,0,1,2.071,2.245v3.149H491.37v-3.04c0-.85-.351-1.569-1.356-1.569a1.522,1.522,0,0,0-1.429.981,1.3,1.3,0,0,0-.072.447v3.182h-1.065Z" transform="translate(-425.769 -969.097)" fill="#fff"/>
      <path id="Path_71" data-name="Path 71" d="M522.034,967.127v1.264h1.525v.73h-1.525v2.845c0,.654.206,1.025.8,1.025a2.192,2.192,0,0,0,.618-.066l.048.73a3.2,3.2,0,0,1-.945.131,1.614,1.614,0,0,1-1.151-.4,1.915,1.915,0,0,1-.411-1.385v-2.877h-.908v-.73h.908v-.97Z" transform="translate(-449.784 -965.928)" fill="#fff"/>
      <path id="Path_72" data-name="Path 72" d="M537.7,962.607h1.065V965.9h.025a1.808,1.808,0,0,1,.763-.676,2.248,2.248,0,0,1,1.09-.272,2,2,0,0,1,2.046,2.256v3.138h-1.065v-3.029c0-.861-.351-1.569-1.356-1.569a1.532,1.532,0,0,0-1.429.959,1.056,1.056,0,0,0-.073.458v3.182H537.7Z" transform="translate(-462.73 -962.607)" fill="#fff"/>
      <path id="Path_73" data-name="Path 73" d="M562.472,974.33a1.786,1.786,0,0,0,2,1.831,4.444,4.444,0,0,0,1.624-.262l.194.676a5.24,5.24,0,0,1-1.962.338,2.6,2.6,0,0,1-2.883-2.659A2.685,2.685,0,0,1,564.2,971.4a2.309,2.309,0,0,1,2.41,2.485,2.22,2.22,0,0,1-.036.457Zm3.113-.686a1.415,1.415,0,0,0-1.466-1.559,1.659,1.659,0,0,0-1.635,1.559Z" transform="translate(-480.171 -969.066)" fill="#fff"/>
    </g>
  </g>
</svg>
